<svg xmlns="http://www.w3.org/2000/svg" viewBox="0 0 24 24" fill="none">
  <circle cx="12" cy="12" r="10" stroke="currentColor" stroke-width="1.5" fill="none"/>
  <circle cx="9" cy="10" r="1.5" fill="currentColor"/>
  <circle cx="15" cy="10" r="1.5" fill="currentColor"/>
  <path d="M9 15c0 0 1 1.5 3 1.5s3-1.5 3-1.5" stroke="currentColor" stroke-width="1.5" stroke-linecap="round"/>
  <path d="M7 6.5C7 5.1 8.1 4 9.5 4S12 5.1 12 6.5 10.9 9 9.5 9 7 7.9 7 6.5z" fill="currentColor" fill-opacity="0.3"/>
  <path d="M12 6.5C12 5.1 13.1 4 14.5 4S17 5.1 17 6.5 15.9 9 14.5 9 12 7.9 12 6.5z" fill="currentColor" fill-opacity="0.3"/>
</svg>